<svg width="124" height="124" viewBox="0 0 124 124" fill="none" xmlns="http://www.w3.org/2000/svg">
<g clip-path="url(#clip0_363_91)">
<mask id="mask0_363_91" style="mask-type:luminance" maskUnits="userSpaceOnUse" x="0" y="0" width="124" height="124">
<path d="M124 0H0V124H124V0Z" fill="white"/>
</mask>
<g mask="url(#mask0_363_91)">
<path d="M36.6907 23.2523C42.1688 20.2319 47.5672 19.2803 52.2395 20.8245C52.2129 20.8894 52.1803 20.9648 52.1389 21.0511C51.8819 21.5861 51.4607 22.2445 50.8899 23.0804C50.3496 23.8716 49.6762 24.8212 49.0608 25.7864C47.8565 27.6755 46.5413 30.108 46.5286 32.7034C46.5151 35.4656 47.9503 37.9268 51.0491 39.8997L51.3538 40.0892C53.8992 41.631 56.8516 40.8384 59.3225 39.6019C61.8861 38.319 64.6227 36.2197 67.2473 33.9896C69.8717 31.7596 72.566 29.2375 74.925 27.1331C77.3584 24.9624 79.4056 23.2638 80.9524 22.3939C83.6228 20.9072 87.2694 20.0409 90.76 20.7884C94.0402 21.4909 97.4051 23.6623 99.8167 28.6165L100.047 29.1048C101.575 32.4399 102.455 37.2922 102.472 43.0472C102.489 48.7713 101.651 55.2541 99.8596 61.7728C96.2661 74.8504 88.9206 87.7881 77.302 95.1517C53.5434 110.113 24.0048 102.362 13.8547 79.5394C8.0266 66.4016 12.4763 49.9796 21.3596 37.5247C25.7723 31.3379 31.1743 26.2938 36.6907 23.2523ZM82.5178 37.4446C81.0648 36.863 79.4402 36.835 77.8704 37.0921C74.744 37.6042 71.2297 39.345 68.1145 41.5921C64.9809 43.8526 62.0469 46.7726 60.1594 49.8509C58.3094 52.8681 57.217 56.4784 58.6848 59.7757C60.2397 63.2688 63.5306 64.5878 66.9124 64.5442C70.2374 64.5013 73.9214 63.184 77.1477 61.1302C83.4596 57.1121 89.2265 49.3515 85.8694 40.8665L85.7405 40.5618C85.0656 39.0679 83.9439 38.0156 82.5178 37.4446Z" stroke="#452829" stroke-width="4"/>
</g>
</g>
<defs>
<clipPath id="clip0_363_91">
<rect width="124" height="124" fill="white"/>
</clipPath>
</defs>
</svg>
