<svg width="634" height="194" viewBox="0 0 634 194" fill="none" xmlns="http://www.w3.org/2000/svg">
<path d="M73.4092 38.3584C83.306 33.2176 93.1822 31.5656 101.775 34.3262L101.786 34.3291C101.851 34.3496 101.908 34.3711 101.959 34.3896C101.901 34.5468 101.813 34.7579 101.674 35.0303C101.207 35.9464 100.446 37.0633 99.4326 38.4609C98.4689 39.7905 97.2813 41.3687 96.1934 42.9766C94.0683 46.1172 91.7635 50.1377 91.7412 54.4238C91.7168 59.1306 94.387 63.2523 100.106 66.5146C104.309 68.9128 109.237 67.7283 113.584 65.6787C118.064 63.5664 122.877 60.0921 127.531 56.3662C132.183 52.6426 136.945 48.4424 141.145 44.9131C145.455 41.2902 149.13 38.412 151.938 36.9248C156.779 34.3858 163.422 32.887 169.82 34.1777C176.07 35.4387 182.345 39.4042 186.677 48.3262L186.678 48.3271C189.408 53.9433 190.97 62.0834 191 71.7129C191.03 81.2962 189.541 92.1484 186.358 103.062C179.979 124.934 166.918 146.664 146.153 159.062C103.99 184.078 51.6328 171.371 33.124 133.688L32.6934 132.794C22.314 110.752 30.232 83.2331 46.04 62.3516C53.8929 51.9785 63.5285 43.4909 73.4092 38.3584ZM154.787 62.6465C152.363 61.7323 149.624 61.6771 146.918 62.0947C141.517 62.9282 135.376 65.7788 129.883 69.5117C124.369 73.2588 119.207 78.0994 115.889 83.1982C112.737 88.0412 110.846 93.7973 113.063 99.0889L113.291 99.5996C115.977 105.284 121.589 107.377 127.35 107.307C133.079 107.237 139.494 105.091 145.157 101.694C150.833 98.2902 156.041 93.4579 159.168 87.7139C162.234 82.0813 163.311 75.5093 160.723 68.7881L160.461 68.1367L160.236 67.6377C159.067 65.199 157.153 63.5388 154.787 62.6465Z" stroke="#F3E8DF" stroke-width="6"/>
<path d="M243.07 34.7363V71.2163C243.07 72.5816 243.283 73.5629 243.71 74.1603C244.136 74.6723 245.118 74.9283 246.654 74.9283H251.262V87.0883H231.294C228.051 87.0883 225.79 86.3629 224.51 84.9123C223.23 83.3763 222.59 81.0296 222.59 77.8723V40.7523C222.59 36.7416 224.936 34.7363 229.63 34.7363H243.07ZM263.934 127.28H247.934C245.032 127.28 243.112 126.811 242.174 125.872C241.32 124.934 240.894 122.971 240.894 119.984V99.5043C240.894 96.5176 241.32 94.5549 242.174 93.6163C243.112 92.6776 245.032 92.2083 247.934 92.2083H263.934V127.28ZM262.91 34.7363H276.35C278.91 34.7363 280.702 35.2483 281.726 36.2723C282.835 37.2963 283.39 39.2163 283.39 42.0323V78.1283C283.39 84.1016 280.915 87.0883 275.966 87.0883H256.382V74.9283H259.454C260.99 74.9283 261.928 74.6296 262.27 74.0323C262.696 73.4349 262.91 72.4963 262.91 71.2163V34.7363ZM332.353 46.8963H320.449C319.083 46.8963 318.401 47.2376 318.401 47.9203V127.28H304.961C302.059 127.28 300.139 126.811 299.201 125.872C298.347 124.934 297.921 122.971 297.921 119.984V42.0323C297.921 39.0456 298.347 37.0829 299.201 36.1443C300.139 35.2056 302.059 34.7363 304.961 34.7363H332.353V46.8963ZM337.473 34.7363H350.913C353.814 34.7363 355.691 35.2056 356.545 36.1443C357.483 37.0829 357.953 39.0456 357.953 42.0323V119.856C357.953 122.843 357.483 124.848 356.545 125.872C355.606 126.811 353.729 127.28 350.913 127.28H337.473V84.4003H323.521V72.2403H337.473V34.7363ZM416.363 99.3763H434.283C435.221 99.3763 435.691 99.9736 435.691 101.168V123.696C435.691 126.086 434.496 127.28 432.107 127.28H401.131V115.12H413.035C414.4 115.12 415.083 114.992 415.083 114.736C415.168 114.395 415.211 114.011 415.211 113.584V100.784C415.211 100.102 415.296 99.7176 415.467 99.6323C415.637 99.4616 415.936 99.3763 416.363 99.3763ZM396.651 127.28H383.211C380.309 127.28 378.389 126.811 377.451 125.872C376.597 124.934 376.171 122.971 376.171 119.984V42.0323C376.171 39.0456 376.597 37.0829 377.451 36.1443C378.389 35.2056 380.309 34.7363 383.211 34.7363H396.651V127.28ZM468.151 127.28H454.711C451.809 127.28 449.889 126.811 448.951 125.872C448.097 124.934 447.671 122.971 447.671 119.984V42.0323C447.671 39.0456 448.097 37.0829 448.951 36.1443C449.889 35.2056 451.809 34.7363 454.711 34.7363H468.151V127.28ZM507.703 109.36V120.24C507.703 123.142 507.233 125.062 506.295 126C505.356 126.854 503.393 127.28 500.407 127.28H473.271V109.36H507.703ZM500.023 71.6003V79.2803C500.023 82.3523 499.724 84.3149 499.127 85.1683C498.529 85.9363 496.823 86.3203 494.007 86.3203H473.271V71.6003H500.023ZM506.423 34.7363V45.6163C506.423 48.5176 505.953 50.4376 505.015 51.3763C504.076 52.2296 502.113 52.6563 499.127 52.6563H473.271V34.7363H506.423Z" fill="#F3E8DF"/>
<path d="M258.864 169.488C258.864 170.491 258.629 171.355 258.16 172.08C257.712 172.784 256.965 173.435 255.92 174.032C255.216 174.459 254.395 174.779 253.456 174.992C252.517 175.206 251.568 175.312 250.608 175.312C249.627 175.312 248.411 174.992 246.96 174.352C245.915 173.84 245.083 173.232 244.464 172.528C243.867 171.824 243.568 171.056 243.568 170.224C243.568 169.648 243.696 169.232 243.952 168.976C244.208 168.699 244.624 168.56 245.2 168.56C245.499 168.56 245.808 168.688 246.128 168.944C246.448 169.179 246.64 169.414 246.704 169.648C247.003 170.523 247.525 171.195 248.272 171.664C249.019 172.112 249.947 172.336 251.056 172.336C252.336 172.336 253.403 172.102 254.256 171.632C255.131 171.163 255.568 170.534 255.568 169.744C255.568 168.976 255.099 168.294 254.16 167.696C253.221 167.099 252.261 166.683 251.28 166.448C249.872 166.064 248.624 165.606 247.536 165.072C246.405 164.518 245.563 163.835 245.008 163.024C244.453 162.214 244.176 161.36 244.176 160.464C244.176 159.632 244.464 158.79 245.04 157.936C245.616 157.062 246.299 156.432 247.088 156.048C247.515 155.835 248.24 155.611 249.264 155.376C250.309 155.12 251.067 154.992 251.536 154.992C252.155 154.992 252.837 155.067 253.584 155.216C254.331 155.366 254.939 155.579 255.408 155.856C256.347 156.39 257.04 156.87 257.488 157.296C257.936 157.723 258.16 158.256 258.16 158.896C258.16 159.28 258.011 159.622 257.712 159.92C257.435 160.219 256.944 160.368 256.24 160.368C256.069 160.368 255.899 160.294 255.728 160.144C255.557 159.995 255.344 159.771 255.088 159.472C254.747 159.024 254.416 158.726 254.096 158.576C253.776 158.47 253.307 158.352 252.688 158.224C252.091 158.096 251.557 158.032 251.088 158.032C250.576 158.032 250.043 158.139 249.488 158.352C248.933 158.566 248.464 158.875 248.08 159.28C247.717 159.664 247.536 160.112 247.536 160.624C247.536 161.051 247.728 161.424 248.112 161.744C248.517 162.043 248.997 162.288 249.552 162.48C250.192 162.736 250.885 162.96 251.632 163.152C252.613 163.451 253.413 163.728 254.032 163.984C254.672 164.219 255.291 164.518 255.888 164.88C256.933 165.499 257.691 166.139 258.16 166.8C258.629 167.44 258.864 168.336 258.864 169.488ZM278.081 158.096C278.401 158.48 278.625 158.79 278.753 159.024C278.881 159.259 278.945 159.483 278.945 159.696C278.945 159.952 278.774 160.251 278.433 160.592C278.113 160.934 277.793 161.104 277.473 161.104C277.046 161.104 276.705 161.04 276.449 160.912C276.193 160.784 275.979 160.582 275.809 160.304C275.403 159.664 274.934 159.099 274.401 158.608C273.867 158.096 273.153 157.84 272.257 157.84C271.382 157.84 270.401 158.043 269.313 158.448C268.225 158.854 267.425 159.355 266.913 159.952C265.761 161.36 265.185 163.227 265.185 165.552C265.185 167.408 265.761 168.998 266.913 170.32C268.129 171.686 269.665 172.368 271.521 172.368C272.374 172.368 273.302 172.219 274.305 171.92C275.329 171.6 276.139 171.088 276.737 170.384H276.705C277.089 169.979 277.569 169.776 278.145 169.776C278.486 169.776 278.806 169.926 279.105 170.224C279.425 170.523 279.585 170.822 279.585 171.12C279.585 171.44 279.531 171.728 279.425 171.984C279.339 172.219 279.169 172.486 278.913 172.784C278.038 173.744 276.918 174.416 275.553 174.8C274.209 175.163 272.673 175.344 270.945 175.344C269.515 175.344 268.139 175.003 266.817 174.32C265.515 173.638 264.438 172.774 263.585 171.728C263.158 171.11 262.742 170.224 262.337 169.072C261.953 167.899 261.761 166.95 261.761 166.224C261.761 164.368 262.038 162.608 262.593 160.944C263.169 159.259 264.022 157.915 265.153 156.912C265.899 156.23 266.977 155.718 268.385 155.376C269.793 155.035 271.083 154.864 272.257 154.864C273.195 154.864 273.995 155.003 274.657 155.28C275.339 155.536 275.926 155.888 276.417 156.336C276.907 156.763 277.462 157.35 278.081 158.096ZM297.139 163.824C297.118 163.483 297.107 162.971 297.107 162.288V161.072C297.107 160.262 297.086 159.654 297.043 159.248C297 158.907 296.979 158.022 296.979 156.592C296.979 156.08 297.128 155.686 297.427 155.408C297.747 155.11 298.174 154.96 298.707 154.96C299.39 154.96 299.848 155.11 300.083 155.408C300.318 155.707 300.435 156.198 300.435 156.88V158.096L300.403 161.616C300.382 162.299 300.371 163.323 300.371 164.688L300.403 167.312C300.424 167.718 300.435 168.283 300.435 169.008C300.435 169.584 300.456 170.406 300.499 171.472C300.542 172.454 300.563 173.19 300.563 173.68C300.563 174.086 300.446 174.459 300.211 174.8C299.998 175.142 299.699 175.312 299.315 175.312C297.822 175.312 297.075 174.811 297.075 173.808C297.075 173.254 297.096 172.635 297.139 171.952C297.182 171.462 297.203 170.715 297.203 169.712C297.203 169.008 297.182 167.995 297.139 166.672C296.136 166.758 294.408 166.8 291.955 166.8C290.419 166.8 289.224 166.8 288.371 166.8C287.518 166.779 286.899 166.726 286.515 166.64L286.483 170.32C286.483 170.555 286.536 171.184 286.643 172.208C286.75 172.891 286.803 173.488 286.803 174C286.803 174.32 286.611 174.63 286.227 174.928C285.864 175.206 285.523 175.344 285.203 175.344C284.435 175.344 283.912 175.163 283.635 174.8C283.358 174.416 283.219 173.84 283.219 173.072L283.187 170.544C283.166 170.246 283.155 169.83 283.155 169.296C283.155 168.507 283.134 167.43 283.091 166.064C283.048 164.827 283.027 163.931 283.027 163.376C283.027 162.544 283.048 161.382 283.091 159.888C283.134 158.48 283.155 157.435 283.155 156.752C283.155 156.07 283.326 155.611 283.667 155.376C284.008 155.142 284.392 155.024 284.819 155.024C286.014 155.024 286.611 155.419 286.611 156.208C286.611 157.616 286.579 158.96 286.515 160.24C286.472 161.862 286.451 163.046 286.451 163.792C287.07 163.942 287.72 164.038 288.403 164.08C289.086 164.123 290.046 164.144 291.283 164.144C293.8 164.144 295.752 164.038 297.139 163.824ZM313.983 154.928C315.413 154.928 316.714 155.11 317.887 155.472C319.061 155.814 320.021 156.326 320.767 157.008C322.111 158.224 323.05 159.558 323.583 161.008C324.138 162.438 324.415 164.272 324.415 166.512C324.415 166.982 324.351 167.408 324.223 167.792C324.117 168.176 323.935 168.667 323.679 169.264C323.359 169.926 323.167 170.448 323.103 170.832C322.677 171.579 321.973 172.294 320.991 172.976C320.031 173.659 318.986 174.214 317.855 174.64C316.725 175.067 315.733 175.28 314.879 175.28C310.762 175.28 307.829 173.872 306.079 171.056C305.589 170.267 305.205 169.446 304.927 168.592C304.671 167.739 304.543 166.907 304.543 166.096C304.543 163.92 304.927 162.032 305.695 160.432C306.485 158.811 307.573 157.552 308.959 156.656C309.791 156.166 310.655 155.76 311.551 155.44C312.469 155.099 313.279 154.928 313.983 154.928ZM307.871 166.192C307.871 167.344 308.127 168.294 308.639 169.04C309.173 169.787 309.983 170.598 311.071 171.472C311.967 171.814 312.575 172.038 312.895 172.144C313.215 172.23 313.578 172.272 313.983 172.272C316.138 172.272 317.855 171.686 319.135 170.512C320.415 169.339 321.055 167.728 321.055 165.68C321.055 164.059 320.874 162.779 320.511 161.84C320.149 160.902 319.498 160.059 318.559 159.312C318.069 158.907 317.439 158.608 316.671 158.416C315.925 158.224 315.114 158.128 314.239 158.128C312.917 158.128 311.775 158.523 310.815 159.312C309.855 160.08 309.119 161.083 308.607 162.32C308.117 163.558 307.871 164.848 307.871 166.192ZM338.099 175.312C336.691 175.312 335.4 175.142 334.227 174.8C333.054 174.438 332.094 173.915 331.347 173.232C329.982 172.016 329.022 170.694 328.467 169.264C327.934 167.814 327.667 165.968 327.667 163.728C327.667 163.259 327.731 162.822 327.859 162.416C328.008 161.99 328.2 161.52 328.435 161.008C328.499 160.859 328.595 160.624 328.723 160.304C328.872 159.963 328.968 159.654 329.011 159.376C329.416 158.63 330.099 157.915 331.059 157.232C332.04 156.55 333.096 156.006 334.227 155.6C335.358 155.174 336.35 154.96 337.203 154.96C341.32 154.96 344.264 156.368 346.035 159.184C347.038 160.827 347.539 162.48 347.539 164.144C347.539 166.299 347.144 168.187 346.355 169.808C345.587 171.43 344.52 172.688 343.155 173.584C342.302 174.096 341.427 174.512 340.531 174.832C339.635 175.152 338.824 175.312 338.099 175.312ZM330.995 166.096C330.974 167.27 331.219 168.24 331.731 169.008C332.264 169.755 333.096 170.576 334.227 171.472C335.08 171.792 335.678 172.006 336.019 172.112C336.36 172.219 336.734 172.272 337.139 172.272C338.526 172.272 339.752 171.984 340.819 171.408C341.886 170.832 342.707 170.043 343.283 169.04C343.88 168.038 344.179 166.918 344.179 165.68C344.179 164.059 343.998 162.779 343.635 161.84C343.272 160.902 342.622 160.059 341.683 159.312C341.192 158.907 340.563 158.608 339.795 158.416C339.048 158.224 338.248 158.128 337.395 158.128C335.347 158.128 333.758 158.854 332.627 160.304C331.518 161.734 330.974 163.664 330.995 166.096ZM353.097 154.96C353.502 154.96 353.865 155.067 354.185 155.28C354.526 155.494 354.729 155.867 354.793 156.4C355.049 158.086 355.209 159.771 355.273 161.456C355.358 163.12 355.401 165.008 355.401 167.12C355.401 168.016 355.326 169.648 355.177 172.016C356.115 172.102 356.841 172.144 357.353 172.144C357.715 172.144 358.537 172.091 359.817 171.984C360.563 171.878 361.214 171.824 361.769 171.824C362.281 171.824 362.75 171.878 363.177 171.984C363.603 172.07 364.041 172.219 364.489 172.432C364.937 172.688 365.161 173.083 365.161 173.616C365.161 174.043 365.022 174.427 364.745 174.768C364.489 175.11 364.179 175.28 363.817 175.28C363.561 175.28 363.155 175.238 362.601 175.152C361.598 175.003 360.638 174.928 359.721 174.928C359.422 174.928 359.081 174.95 358.697 174.992C358.334 175.014 358.067 175.024 357.897 175.024C357.385 175.088 356.873 175.12 356.361 175.12C355.315 175.12 354.377 175.067 353.545 174.96C353.118 174.918 352.691 174.758 352.265 174.48C351.838 174.182 351.625 173.755 351.625 173.2C351.625 172.88 351.667 172.059 351.753 170.736C351.902 168.539 351.977 166.864 351.977 165.712C351.977 164.816 351.934 163.878 351.849 162.896C351.763 161.915 351.71 161.296 351.689 161.04C351.497 159.227 351.401 157.734 351.401 156.56C351.401 156.006 351.529 155.6 351.785 155.344C352.062 155.088 352.499 154.96 353.097 154.96ZM384.152 154.928C385.518 154.928 386.691 155.099 387.672 155.44C388.675 155.782 389.56 156.304 390.328 157.008C391.672 158.224 392.611 159.558 393.144 161.008C393.699 162.438 393.976 164.272 393.976 166.512C393.976 167.067 393.902 167.59 393.752 168.08C393.603 168.55 393.379 169.126 393.08 169.808L392.664 170.832C392.366 171.643 391.747 172.4 390.808 173.104C389.87 173.787 388.814 174.331 387.64 174.736C386.467 175.142 385.4 175.344 384.44 175.344C382.478 175.344 380.76 175.024 379.288 174.384C377.838 173.723 376.632 172.688 375.672 171.28C375.182 170.534 374.798 169.702 374.52 168.784C374.243 167.846 374.104 166.95 374.104 166.096C374.104 163.92 374.488 162.032 375.256 160.432C376.046 158.811 377.134 157.552 378.52 156.656C379.31 156.187 380.248 155.782 381.336 155.44C382.446 155.099 383.384 154.928 384.152 154.928ZM377.496 166.096C377.496 167.206 377.763 168.24 378.296 169.2C378.851 170.139 379.587 170.886 380.504 171.44C381.443 171.995 382.467 172.272 383.576 172.272C385.859 172.272 387.598 171.696 388.792 170.544C390.008 169.392 390.616 167.771 390.616 165.68C390.616 164.059 390.435 162.779 390.072 161.84C389.71 160.902 389.059 160.059 388.12 159.312C387.608 158.886 387.054 158.587 386.456 158.416C385.88 158.224 385.198 158.128 384.408 158.128C383.043 158.128 381.838 158.47 380.792 159.152C379.747 159.835 378.936 160.784 378.36 162C377.784 163.216 377.496 164.582 377.496 166.096ZM399.406 175.376C398.915 175.376 398.542 175.248 398.286 174.992C398.03 174.715 397.902 174.438 397.902 174.16C398.03 173.392 398.105 172.571 398.126 171.696C398.147 170.822 398.158 170.299 398.158 170.128V168.976C398.158 168.102 398.147 167.334 398.126 166.672C398.105 165.99 398.083 165.414 398.062 164.944C397.977 163.067 397.934 161.606 397.934 160.56V159.568C397.977 158.544 398.03 157.648 398.094 156.88C398.115 156.582 398.297 156.262 398.638 155.92C399.001 155.579 399.491 155.366 400.11 155.28C402.137 155.067 404.654 154.96 407.662 154.96H408.686C409.433 154.96 410.169 155.099 410.894 155.376C411.641 155.654 412.014 156.123 412.014 156.784C412.014 157.232 411.907 157.595 411.694 157.872C411.481 158.128 411.065 158.256 410.446 158.256C410.169 158.256 409.849 158.235 409.486 158.192C409.123 158.15 408.867 158.118 408.718 158.096C407.907 157.968 407.278 157.904 406.83 157.904C404.355 157.904 402.478 158.075 401.198 158.416V160.176V163.856C402.649 163.856 404.163 163.792 405.742 163.664C406.894 163.579 407.641 163.536 407.982 163.536C408.473 163.536 408.889 163.654 409.23 163.888C409.593 164.102 409.774 164.432 409.774 164.88C409.774 165.99 409.017 166.544 407.502 166.544C407.139 166.544 406.595 166.587 405.87 166.672C405.059 166.758 404.43 166.8 403.982 166.8C403.705 166.8 403.31 166.779 402.798 166.736C402.137 166.694 401.689 166.683 401.454 166.704C401.433 167.259 401.443 168.123 401.486 169.296L401.518 171.44C401.518 172.166 401.507 172.71 401.486 173.072C401.465 173.414 401.401 173.787 401.294 174.192C401.23 174.534 401.038 174.822 400.718 175.056C400.398 175.27 399.961 175.376 399.406 175.376ZM436.244 174.8C435.967 174.438 435.732 174.043 435.54 173.616C435.348 173.168 435.145 172.635 434.932 172.016C434.889 171.91 434.761 171.59 434.548 171.056C434.356 170.523 434.132 170.064 433.876 169.68C432.532 169.872 431.433 169.968 430.58 169.968C430.111 169.968 429.588 169.958 429.012 169.936C428.457 169.894 428.041 169.872 427.764 169.872C426.697 169.787 425.844 169.744 425.204 169.744C424.948 170.086 424.724 170.448 424.532 170.832C424.361 171.216 424.137 171.792 423.86 172.56C423.476 173.67 423.145 174.459 422.868 174.928C422.676 175.248 422.303 175.408 421.748 175.408C421.279 175.408 420.841 175.312 420.436 175.12C420.052 174.907 419.86 174.619 419.86 174.256C420.031 173.446 420.297 172.592 420.66 171.696C421.044 170.779 421.588 169.563 422.292 168.048L423.572 164.912C424.276 163.12 424.916 161.584 425.492 160.304C426.089 159.024 426.868 157.51 427.828 155.76C427.956 155.504 428.169 155.291 428.468 155.12C428.767 154.928 429.097 154.832 429.46 154.832C429.865 154.832 430.153 154.864 430.324 154.928C430.516 154.971 430.665 155.056 430.772 155.184C430.879 155.291 431.039 155.526 431.252 155.888C431.977 157.019 432.596 158.182 433.108 159.376C433.641 160.571 434.313 162.224 435.124 164.336L435.796 166.032C436.393 167.568 436.905 168.859 437.332 169.904C437.78 170.928 438.271 171.867 438.804 172.72C439.145 173.275 439.316 173.659 439.316 173.872C439.316 174.384 439.156 174.779 438.836 175.056C438.537 175.312 438.143 175.44 437.652 175.44C437.033 175.44 436.564 175.227 436.244 174.8ZM432.948 167.056C432.607 166.331 432.116 165.072 431.476 163.28C430.815 161.36 430.153 159.835 429.492 158.704C429.087 159.728 428.489 161.051 427.7 162.672C427.167 163.675 426.559 165.126 425.876 167.024C427.241 167.195 428.713 167.28 430.292 167.28C431.423 167.28 432.308 167.206 432.948 167.056ZM452.873 166.8C454.729 169.958 456.468 172.464 458.089 174.32C458.26 174.491 458.345 174.683 458.345 174.896C458.345 175.174 458.174 175.408 457.833 175.6C457.492 175.814 457.097 175.92 456.649 175.92C455.988 175.92 455.273 175.643 454.505 175.088C453.95 174.704 453.438 174.139 452.969 173.392C452.5 172.624 451.966 171.643 451.369 170.448L450.825 169.36C450.27 168.358 449.94 167.771 449.833 167.6C449.364 167.792 448.82 167.931 448.201 168.016C447.582 168.102 446.825 168.176 445.929 168.24C445.972 170.971 445.993 172.88 445.993 173.968C445.993 174.374 445.844 174.704 445.545 174.96C445.246 175.195 444.873 175.312 444.425 175.312C443.87 175.312 443.444 175.088 443.145 174.64C442.846 174.043 442.697 173.115 442.697 171.856L442.729 169.52C442.729 168.07 442.761 166.694 442.825 165.392C442.868 163.686 442.889 162.427 442.889 161.616L442.921 159.984C442.921 159.494 442.889 158.992 442.825 158.48C442.484 158.374 442.185 158.214 441.929 158C441.673 157.766 441.545 157.51 441.545 157.232C441.545 156.699 441.737 156.294 442.121 156.016C442.526 155.718 443.028 155.526 443.625 155.44C445.353 155.163 447.038 155.024 448.681 155.024C451.476 155.024 453.79 155.547 455.625 156.592C457.46 157.638 458.377 159.227 458.377 161.36C458.377 162.022 458.228 162.662 457.929 163.28C457.652 163.878 457.268 164.379 456.777 164.784C455.497 165.787 454.196 166.459 452.873 166.8ZM454.985 161.264C454.985 160.24 454.441 159.408 453.353 158.768C452.286 158.107 450.75 157.776 448.745 157.776C447.87 157.776 446.974 157.883 446.057 158.096C446.1 158.864 446.121 159.408 446.121 159.728C446.121 160.368 446.078 161.286 445.993 162.48C445.95 163.675 445.929 164.635 445.929 165.36C447.358 165.36 448.724 165.168 450.025 164.784C450.964 164.507 451.753 164.24 452.393 163.984C453.033 163.728 453.62 163.376 454.153 162.928C454.708 162.459 454.985 161.904 454.985 161.264ZM459.888 156.624C459.888 155.707 460.56 155.248 461.904 155.248C462.48 155.248 463.578 155.27 465.2 155.312C466.992 155.398 468.346 155.44 469.264 155.44C470.01 155.44 470.917 155.398 471.984 155.312C472.709 155.27 473.168 155.248 473.36 155.248C474.533 155.291 475.525 155.504 476.336 155.888C476.57 155.995 476.762 156.123 476.912 156.272C477.061 156.422 477.136 156.667 477.136 157.008C477.136 157.478 476.986 157.883 476.688 158.224C476.389 158.544 476.026 158.704 475.6 158.704C475.13 158.704 474.448 158.64 473.552 158.512C472.762 158.363 472.069 158.288 471.472 158.288C470.896 158.288 470.458 158.299 470.16 158.32C470.096 159.024 470.064 160.71 470.064 163.376C470.064 166.555 470.16 169.776 470.352 173.04L470.416 173.968C470.416 174.843 469.914 175.28 468.912 175.28C468.122 175.28 467.589 175.099 467.312 174.736C467.034 174.352 466.896 173.776 466.896 173.008C466.896 171.494 466.853 169.606 466.768 167.344C466.682 165.467 466.64 164.134 466.64 163.344C466.64 162.811 466.704 161.179 466.832 158.448L463.088 158.48C461.893 158.48 461.061 158.374 460.592 158.16C460.122 157.926 459.888 157.414 459.888 156.624Z" fill="white"/>
</svg>
