<svg width="124" height="124" viewBox="0 0 124 124" fill="none" xmlns="http://www.w3.org/2000/svg">
<g clip-path="url(#clip0_327_104)">
<path d="M36.6907 23.252C42.1688 20.2316 47.5672 19.28 52.2395 20.8242C52.2129 20.8891 52.1803 20.9645 52.1389 21.0508C51.8819 21.5858 51.4607 22.2442 50.8899 23.0801C50.3496 23.8713 49.6762 24.8209 49.0608 25.7861C47.8565 27.6752 46.5413 30.1077 46.5286 32.7031C46.5151 35.4653 47.9503 37.9265 51.0491 39.8994L51.3538 40.0889C53.8992 41.6307 56.8516 40.8381 59.3225 39.6016C61.8861 38.3187 64.6227 36.2194 67.2473 33.9893C69.8717 31.7593 72.566 29.2372 74.925 27.1328C77.3584 24.9621 79.4056 23.2635 80.9524 22.3936C83.6228 20.9069 87.2694 20.0406 90.76 20.7881C94.0402 21.4906 97.4051 23.662 99.8167 28.6162L100.047 29.1045C101.575 32.4396 102.455 37.2919 102.472 43.0469C102.489 48.771 101.651 55.2538 99.8596 61.7725C96.2661 74.8501 88.9206 87.7878 77.302 95.1514C53.5434 110.113 24.0048 102.362 13.8547 79.5391C8.02663 66.4013 12.4763 49.9793 21.3596 37.5244C25.7723 31.3376 31.1743 26.2935 36.6907 23.252ZM82.5178 37.4443C81.0648 36.8627 79.4402 36.8347 77.8704 37.0918C74.744 37.6039 71.2297 39.3447 68.1145 41.5918C64.9809 43.8523 62.0469 46.7723 60.1594 49.8506C58.3094 52.8678 57.217 56.4781 58.6848 59.7754C60.2397 63.2685 63.5306 64.5875 66.9124 64.5439C70.2374 64.501 73.9214 63.1837 77.1477 61.1299C83.4596 57.1118 89.2265 49.3512 85.8694 40.8662L85.7405 40.5615C85.0656 39.0676 83.9439 38.0153 82.5178 37.4443Z" stroke="#F3E8DF" stroke-width="4"/>
</g>
<defs>
<clipPath id="clip0_327_104">
<rect width="124" height="124" fill="white"/>
</clipPath>
</defs>
</svg>
